<svg id="svg" version="1.1" xmlns="http://www.w3.org/2000/svg" xmlns:xlink="http://www.w3.org/1999/xlink" width="400" height="400" viewBox="0, 0, 400,400"><g id="svgg"><path id="path0" d="M281.955 1.527 C 218.925 14.825,194.507 93.693,238.863 140.712 C 284.216 188.789,364.599 167.692,380.900 103.434 C 396.011 43.862,342.504 -11.247,281.955 1.527 M315.065 27.782 C 357.988 39.671,371.825 92.371,340.301 123.895 C 304.577 159.619,244.467 136.242,242.377 85.811 C 240.740 46.309,277.114 17.270,315.065 27.782 M164.063 51.138 C 115.777 59.621,79.140 94.763,68.324 142.969 C 67.250 147.753,66.895 155.709,66.386 186.328 C 65.357 248.255,59.558 265.691,30.400 294.531 C 18.131 306.667,16.797 309.233,16.797 320.703 C 16.797 333.558,21.928 342.154,32.786 347.486 L 37.109 349.609 79.136 350.000 L 121.163 350.391 123.519 357.422 C 142.718 414.704,226.384 413.812,243.047 356.147 L 244.808 350.051 287.052 349.830 L 329.297 349.609 334.181 346.961 C 344.766 341.221,349.623 332.941,349.585 320.703 C 349.550 309.476,348.056 306.719,334.849 293.513 C 310.408 269.074,301.155 246.576,300.244 209.375 C 299.693 186.841,298.065 183.100,288.444 182.253 C 277.690 181.306,274.219 187.060,274.219 205.834 C 274.219 249.372,286.630 281.501,314.453 309.989 C 324.389 320.162,325.457 322.177,321.875 323.989 C 318.609 325.641,46.289 325.440,43.924 323.784 C 40.904 321.669,41.851 319.878,50.608 311.138 C 81.352 280.455,91.406 252.690,91.406 198.473 C 91.406 167.971,92.209 154.000,94.471 145.156 C 104.937 104.234,140.557 75.980,182.031 75.704 C 198.681 75.593,205.868 68.739,200.963 57.650 C 197.752 50.392,183.063 47.800,164.063 51.138 M215.631 354.676 C 204.628 376.473,174.598 380.973,157.076 363.451 C 153.373 359.748,148.438 352.301,148.438 350.417 C 148.438 350.187,164.087 350.000,183.214 350.000 L 217.991 350.000 215.631 354.676 " stroke="none" fill="#000000" fill-rule="evenodd"></path></g></svg>