<svg id="svg" xmlns="http://www.w3.org/2000/svg" xmlns:xlink="http://www.w3.org/1999/xlink" width="400" height="400" viewBox="0, 0, 400,400"><g id="svgg"><path id="path0" d="M141.406 0.499 C 140.332 0.657,136.816 1.165,133.594 1.628 C 36.656 15.547,-25.054 120.352,9.313 212.699 C 46.270 312.003,168.552 348.895,252.344 286.020 L 257.422 282.209 315.234 339.811 C 352.116 376.559,374.080 397.882,375.899 398.707 C 386.955 403.719,399.186 396.437,399.864 384.438 C 400.358 375.686,402.473 378.121,339.769 315.234 L 282.124 257.422 284.045 255.078 C 337.541 189.808,323.749 84.723,254.838 32.536 C 222.621 8.137,177.051 -4.733,141.406 0.499 M178.344 35.561 C 259.792 48.493,306.940 139.315,270.268 212.634 C 223.627 305.882,93.150 305.932,46.573 212.720 C 1.966 123.449,79.062 19.798,178.344 35.561 " stroke="none" fill="#000000" fill-rule="evenodd"></path></g></svg>